<?xml version="1.0" encoding="UTF-8"?> <svg xmlns="http://www.w3.org/2000/svg" width="226" height="160" viewBox="0 0 226 160" fill="none"><g clip-path="url(#clip0_143_14000)"><path d="M97.5598 46.12H112.49L104.6 33.39L90.1199 56.38H83.51L101.14 28.79C101.89 27.67 103.18 27 104.6 27C106.02 27 107.25 27.65 108 28.75L125.68 56.39H119.08L115.97 51.25H100.85L97.5498 46.13M166.06 51.25V27.28H160.45V53.6C160.45 54.32 160.75 55.02 161.28 55.53C161.81 56.08 162.55 56.39 163.32 56.39H188.82L192.14 51.25H166.06ZM73.47 46.96C78.92 46.96 83.2998 42.55 83.2998 37.12C83.2998 31.69 78.92 27.28 73.47 27.28H48.98V56.39H54.5798V32.43H73.0999C75.6999 32.43 77.8098 34.53 77.8098 37.12C77.8098 39.71 75.6999 41.85 73.0999 41.85H57.3198L74.0398 56.39H82.1599L70.9299 46.97H73.48M14.5498 56.39H31.47C39.52 56.39 46 49.89 46 41.85C46 33.81 39.52 27.29 31.47 27.29H14.5498C6.5098 27.29 -0.0100098 33.81 -0.0100098 41.85C-0.0100098 49.89 6.5098 56.39 14.5498 56.39ZM31.0798 51.26H14.9199C9.71992 51.26 5.51001 47.03 5.51001 41.84C5.51001 36.65 9.71992 32.42 14.9199 32.42H31.0798C36.2998 32.42 40.51 36.62 40.51 41.84C40.51 47.06 36.2998 51.26 31.0798 51.26ZM137.36 56.39H154.63L157.9 51.27H137.74C132.52 51.27 128.31 47.04 128.31 41.85C128.31 36.66 132.52 32.43 137.74 32.43H154.15L157.46 27.29H137.36C129.32 27.29 122.78 33.81 122.78 41.85C122.78 49.89 129.31 56.39 137.36 56.39ZM205.81 51.26C201.5 51.26 197.86 48.36 196.74 44.41H220.66L223.96 39.28H196.75C197.87 35.31 201.51 32.43 205.82 32.43H222.24L225.52 27.29H205.44C197.41 27.29 190.89 33.81 190.89 41.85C190.89 49.89 197.41 56.39 205.44 56.39H222.71L225.99 51.27H205.81" fill="#C74634"></path><path d="M97.5598 46.12H112.49L104.6 33.39L90.1199 56.38H83.51L101.14 28.79C101.89 27.67 103.18 27 104.6 27C106.02 27 107.25 27.65 108 28.75L125.68 56.39H119.08L115.97 51.25H100.85L97.5498 46.13M166.06 51.25V27.28H160.45V53.6C160.45 54.32 160.75 55.02 161.28 55.53C161.81 56.08 162.55 56.39 163.32 56.39H188.82L192.14 51.25H166.06ZM73.47 46.96C78.92 46.96 83.2998 42.55 83.2998 37.12C83.2998 31.69 78.92 27.28 73.47 27.28H48.98V56.39H54.5798V32.43H73.0999C75.6999 32.43 77.8098 34.53 77.8098 37.12C77.8098 39.71 75.6999 41.85 73.0999 41.85H57.3198L74.0398 56.39H82.1599L70.9299 46.97H73.48M14.5498 56.39H31.47C39.52 56.39 46 49.89 46 41.85C46 33.81 39.52 27.29 31.47 27.29H14.5498C6.5098 27.29 -0.0100098 33.81 -0.0100098 41.85C-0.0100098 49.89 6.5098 56.39 14.5498 56.39ZM31.0798 51.26H14.9199C9.71992 51.26 5.51001 47.03 5.51001 41.84C5.51001 36.65 9.71992 32.42 14.9199 32.42H31.0798C36.2998 32.42 40.51 36.62 40.51 41.84C40.51 47.06 36.2998 51.26 31.0798 51.26ZM137.36 56.39H154.63L157.9 51.27H137.74C132.52 51.27 128.31 47.04 128.31 41.85C128.31 36.66 132.52 32.43 137.74 32.43H154.15L157.46 27.29H137.36C129.32 27.29 122.78 33.81 122.78 41.85C122.78 49.89 129.31 56.39 137.36 56.39ZM205.81 51.26C201.5 51.26 197.86 48.36 196.74 44.41H220.66L223.96 39.28H196.75C197.87 35.31 201.51 32.43 205.82 32.43H222.24L225.52 27.29H205.44C197.41 27.29 190.89 33.81 190.89 41.85C190.89 49.89 197.41 56.39 205.44 56.39H222.71L225.99 51.27H205.81" fill="#C74634"></path><path d="M2.57983 131.86V106.41H5.83984V131.86H2.57983Z" fill="#C74634"></path><path d="M12 131.86V113.59H14.1399L14.7 116.71C15.47 115.59 16.4198 114.73 17.5398 114.12C18.6598 113.51 19.9198 113.21 21.3198 113.21C23.4198 113.21 25.0299 113.84 26.1499 115.1C27.2699 116.36 27.8298 118.18 27.8298 120.56V131.87H24.6799V120.67C24.6799 117.5 23.2998 115.91 20.5498 115.91C19.3798 115.91 18.3099 116.27 17.3499 116.98C16.3799 117.69 15.6499 118.66 15.1599 119.87V131.88H12.01L12 131.86Z" fill="#C74634"></path><path d="M34.6199 131.86V116.18H31.47V114.57L34.6199 113.52V111.49C34.6199 107.38 36.58 105.33 40.5 105.33C40.92 105.33 41.3799 105.38 41.8699 105.47V107.92C41.5899 107.87 41.22 107.85 40.75 107.85C39.68 107.85 38.91 108.14 38.46 108.71C38 109.28 37.78 110.2 37.78 111.46V113.6H42.02V116.19H37.78V131.87H34.6299L34.6199 131.86Z" fill="#C74634"></path><path d="M46.52 131.86V113.59H48.6599L49.2898 117.02C50.4798 114.71 52.1799 113.55 54.3999 113.55C54.8699 113.55 55.2799 113.59 55.6199 113.66V116.43H54.8098C53.4798 116.43 52.37 116.8 51.48 117.55C50.59 118.3 49.9899 119.38 49.6599 120.81V131.87H46.51L46.52 131.86Z" fill="#C74634"></path><path d="M70.8899 131.86L70.3599 128.92C68.8699 131.14 66.84 132.25 64.27 132.25C62.43 132.25 60.9498 131.73 59.8398 130.69C58.7298 129.65 58.1799 128.27 58.1799 126.54C58.1799 124.63 58.8399 123.14 60.1599 122.08C61.4799 121.02 63.3199 120.49 65.6699 120.49H69.8699V119.33C69.8699 118.02 69.58 117.1 69.01 116.56C68.44 116.02 67.4598 115.75 66.0898 115.75C65.1998 115.75 64.26 115.85 63.25 116.05C62.25 116.25 61.1099 116.57 59.8499 117.01V114.45C60.7399 114.05 61.7499 113.74 62.8999 113.52C64.0399 113.3 65.1199 113.19 66.1199 113.19C70.7199 113.19 73.02 115.23 73.02 119.32V131.85H70.8799L70.8899 131.86ZM64.6499 129.73C65.7199 129.73 66.7299 129.42 67.6599 128.8C68.5899 128.18 69.3399 127.34 69.8999 126.26V122.79H65.98C64.39 122.79 63.22 123.08 62.46 123.65C61.7 124.22 61.3198 125.1 61.3198 126.29C61.3198 127.34 61.62 128.18 62.21 128.79C62.81 129.41 63.6199 129.72 64.6399 129.72L64.6499 129.73Z" fill="#C74634"></path><path d="M77.8198 130.95V128.29C78.9198 128.76 79.9098 129.1 80.8098 129.31C81.7098 129.52 82.6599 129.62 83.6599 129.62C86.6899 129.62 88.21 128.71 88.21 126.89C88.21 126.17 87.9898 125.6 87.5498 125.19C87.1098 124.78 86.32 124.43 85.2 124.12L82.3298 123.35C80.6498 122.88 79.4199 122.25 78.6499 121.44C77.8799 120.63 77.49 119.6 77.49 118.34C77.49 116.75 78.1099 115.5 79.3599 114.58C80.6099 113.66 82.2899 113.2 84.4199 113.2C85.5899 113.2 86.6499 113.29 87.6099 113.48C88.5699 113.67 89.3999 113.92 90.0999 114.25V116.91C88.2999 116.19 86.4799 115.82 84.6399 115.82C81.9799 115.82 80.6499 116.59 80.6499 118.13C80.6499 118.78 80.85 119.3 81.26 119.69C81.67 120.08 82.3899 120.41 83.4099 120.69L86.3198 121.46C88.0898 121.93 89.3799 122.58 90.1699 123.4C90.9599 124.23 91.3599 125.34 91.3599 126.74C91.3599 128.44 90.6899 129.79 89.3599 130.77C88.0299 131.75 86.1898 132.24 83.8298 132.24C82.7098 132.24 81.6098 132.12 80.5398 131.89C79.4698 131.66 78.5598 131.34 77.8098 130.95H77.8198Z" fill="#C74634"></path><path d="M96.76 126.3V116.18H93.6099V114.57L96.76 113.52L98.02 108.55H99.9099V113.59H103.87V116.18H99.9099V126.26C99.9099 128.27 100.77 129.27 102.5 129.27C102.78 129.27 103.05 129.25 103.32 129.22C103.59 129.18 103.84 129.16 104.07 129.13V131.86C103.74 131.93 103.41 131.98 103.07 132C102.73 132.02 102.37 132.03 102 132.03C100.2 132.03 98.88 131.56 98.03 130.63C97.18 129.7 96.75 128.25 96.75 126.29L96.76 126.3Z" fill="#C74634"></path><path d="M108.7 131.86V113.59H110.84L111.47 117.02C112.66 114.71 114.36 113.55 116.58 113.55C117.05 113.55 117.46 113.59 117.8 113.66V116.43H116.99C115.66 116.43 114.55 116.8 113.66 117.55C112.77 118.3 112.17 119.38 111.84 120.81V131.87H108.69L108.7 131.86Z" fill="#C74634"></path><path d="M122.17 124.9V113.59H125.32V124.79C125.32 126.35 125.66 127.56 126.34 128.4C127.02 129.24 128.01 129.66 129.32 129.66C130.42 129.66 131.45 129.28 132.42 128.52C133.39 127.76 134.12 126.75 134.61 125.49V113.59H137.76V131.86H135.62L135.06 128.74C134.31 129.86 133.37 130.72 132.24 131.33C131.11 131.94 129.88 132.24 128.55 132.24C126.52 132.24 124.95 131.61 123.84 130.35C122.73 129.09 122.18 127.27 122.18 124.89L122.17 124.9Z" fill="#C74634"></path><path d="M156.59 128.36V130.95C155.14 131.81 153.31 132.25 151.09 132.25C148.27 132.25 146.14 131.43 144.7 129.78C143.26 128.13 142.55 125.71 142.55 122.52C142.55 119.56 143.31 117.26 144.83 115.64C146.35 114.02 148.49 113.21 151.27 113.21C153 113.21 154.6 113.59 156.07 114.36V116.95C154.53 116.18 153.09 115.79 151.76 115.79C147.77 115.79 145.77 118.03 145.77 122.51C145.77 124.94 146.23 126.73 147.15 127.9C148.07 129.07 149.52 129.65 151.51 129.65C152.3 129.65 153.11 129.55 153.93 129.34C154.75 129.13 155.63 128.8 156.59 128.36Z" fill="#C74634"></path><path d="M162.43 126.3V116.18H159.28V114.57L162.43 113.52L163.69 108.55H165.58V113.59H169.54V116.18H165.58V126.26C165.58 128.27 166.44 129.27 168.17 129.27C168.45 129.27 168.72 129.25 168.99 129.22C169.26 129.18 169.51 129.16 169.74 129.13V131.86C169.41 131.93 169.08 131.98 168.74 132C168.4 132.02 168.04 132.03 167.67 132.03C165.87 132.03 164.55 131.56 163.7 130.63C162.85 129.7 162.42 128.25 162.42 126.29L162.43 126.3Z" fill="#C74634"></path><path d="M174.2 124.9V113.59H177.35V124.79C177.35 126.35 177.69 127.56 178.37 128.4C179.05 129.24 180.04 129.66 181.35 129.66C182.45 129.66 183.48 129.28 184.45 128.52C185.42 127.76 186.15 126.75 186.64 125.49V113.59H189.79V131.86H187.65L187.09 128.74C186.34 129.86 185.4 130.72 184.27 131.33C183.14 131.94 181.91 132.24 180.58 132.24C178.55 132.24 176.98 131.61 175.87 130.35C174.76 129.09 174.21 127.27 174.21 124.89L174.2 124.9Z" fill="#C74634"></path><path d="M195.73 131.86V113.59H197.87L198.5 117.02C199.69 114.71 201.39 113.55 203.61 113.55C204.08 113.55 204.49 113.59 204.83 113.66V116.43H204.02C202.69 116.43 201.58 116.8 200.69 117.55C199.8 118.3 199.2 119.38 198.87 120.81V131.87H195.72L195.73 131.86Z" fill="#C74634"></path><path d="M222.48 130.95C221.83 131.35 220.96 131.66 219.87 131.89C218.78 132.12 217.6 132.24 216.32 132.24C213.43 132.24 211.24 131.42 209.76 129.77C208.28 128.12 207.54 125.71 207.54 122.54C207.54 119.37 208.25 117.16 209.66 115.57C211.07 113.98 213.1 113.19 215.73 113.19C220.82 113.19 223.36 116 223.36 121.63V123.66H210.72C210.86 125.71 211.41 127.21 212.37 128.16C213.33 129.11 214.75 129.58 216.64 129.58C217.69 129.58 218.68 129.48 219.62 129.27C220.55 129.06 221.51 128.73 222.49 128.29V130.95H222.48ZM215.72 115.79C214.18 115.79 212.98 116.25 212.13 117.17C211.28 118.09 210.8 119.43 210.71 121.18H220.3C220.3 119.27 219.94 117.89 219.23 117.05C218.52 116.21 217.35 115.79 215.71 115.79H215.72Z" fill="#C74634"></path><path d="M14.6099 92.96H31.8398L35.1499 87.93H14.9199C12.4399 87.88 10.0698 86.86 8.32983 85.09C6.58983 83.32 5.61987 80.93 5.61987 78.45C5.61987 75.97 6.58983 73.58 8.32983 71.81C10.0698 70.04 12.4399 69.02 14.9199 68.97H31.3599L34.6899 63.76H14.6099C10.7299 63.76 7.02002 65.3 4.27002 68.04C1.53002 70.78 -0.0100098 74.5 -0.0100098 78.38C-0.0100098 82.26 1.53002 85.97 4.27002 88.72C7.01002 91.46 10.7299 93 14.6099 93V92.96ZM43.3799 87.93V63.89H37.6799V90.28C37.6799 90.63 37.7399 90.98 37.8799 91.31C38.0199 91.64 38.22 91.93 38.47 92.18C39.03 92.69 39.76 92.98 40.52 92.97H66.1199L69.45 87.76H43.3899V87.94L43.3799 87.93Z" fill="#C74634"></path><path d="M175.49 87.93H160.97V69.14H175.51C178.02 69.14 180.43 70.15 182.21 71.92C183.99 73.7 184.99 76.1 185 78.62C185 79.86 184.74 81.08 184.26 82.22C183.78 83.36 183.07 84.39 182.19 85.26C181.31 86.13 180.26 86.81 179.11 87.27C177.96 87.73 176.73 87.96 175.5 87.94L175.49 87.93ZM155.44 63.89V90.28C155.44 90.63 155.5 90.98 155.64 91.31C155.78 91.64 155.97 91.93 156.22 92.18C156.79 92.69 157.53 92.98 158.29 92.97H175.99C179.85 92.97 183.54 91.44 186.27 88.71C189 85.98 190.53 82.28 190.53 78.43C190.53 74.58 189 70.88 186.27 68.15C183.54 65.42 179.84 63.89 175.99 63.89H155.44Z" fill="#C74634"></path><path d="M99.3298 87.93H83.22C81.97 87.93 80.7398 87.68 79.5898 87.21C78.4398 86.74 77.39 86.03 76.51 85.15C75.63 84.27 74.93 83.22 74.45 82.07C73.9699 80.92 73.73 79.69 73.73 78.44C73.73 77.19 73.9799 75.96 74.45 74.81C74.93 73.66 75.63 72.61 76.51 71.73C77.39 70.85 78.4398 70.15 79.5898 69.67C80.7398 69.19 81.97 68.95 83.22 68.95H99.3298C101.85 68.95 104.26 69.95 106.04 71.73C107.82 73.51 108.82 75.92 108.82 78.44C108.82 80.96 107.82 83.37 106.04 85.15C104.26 86.93 101.85 87.93 99.3298 87.93ZM82.72 92.96H99.6399C103.5 92.96 107.19 91.43 109.92 88.7C112.65 85.97 114.18 82.27 114.18 78.42C114.18 74.57 112.65 70.87 109.92 68.14C107.19 65.41 103.49 63.88 99.6399 63.88H82.72C78.86 63.88 75.1699 65.41 72.4399 68.14C69.7099 70.87 68.1799 74.57 68.1799 78.42C68.1799 82.27 69.7099 85.97 72.4399 88.7C75.1699 91.43 78.87 92.96 82.72 92.96Z" fill="#C74634"></path><path d="M137.41 92.96H131.71C129.8 92.96 127.91 92.59 126.14 91.86C124.37 91.13 122.77 90.06 121.42 88.71C120.07 87.36 119 85.75 118.27 83.99C117.54 82.22 117.17 80.33 117.17 78.42V63.73H122.72V78.43C122.75 80.81 123.7 83.09 125.39 84.77C127.07 86.45 129.35 87.41 131.73 87.44H137.43C139.81 87.41 142.09 86.46 143.77 84.77C145.45 83.09 146.41 80.81 146.44 78.43V63.73H151.97V78.43C151.97 80.34 151.6 82.23 150.87 84C150.14 85.77 149.07 87.37 147.71 88.72C146.36 90.07 144.75 91.14 142.98 91.87C141.21 92.6 139.32 92.97 137.41 92.96Z" fill="#C74634"></path></g><defs><clipPath id="clip0_143_14000"><rect width="226" height="160" fill="white" transform="translate(-0.0100098)"></rect></clipPath></defs></svg> 